<svg id="Layer_1" data-name="Layer 1" xmlns="http://www.w3.org/2000/svg" viewBox="0 0 333 132.12"><defs><style>.cls-1{fill:#fff;}</style></defs><title>Auto</title><path class="cls-1" d="M60.84,253.57H43.21L36,217.21l6.6-5.54v-20.2l.35-.71C43.81,189,65,148.23,157.73,148.23c67.81,0,87,16.39,99.73,27.23,4.36,3.71,7.51,6.4,11.5,7.28,4.7,1,12.89,1.77,22.38,2.62,34,3,60.31,6.36,65.21,18.79a34.09,34.09,0,0,0,5.65,9.45c5.34,6.81,8.48,12.18,5.86,35.71l-.31,2.81-18,1.2-.45-6.74,12.38-.83c1.89-19.5-.92-23.09-4.76-28a40.72,40.72,0,0,1-6.62-11.15c-3.76-9.53-38.66-12.66-59.52-14.53-9.72-.87-18.12-1.62-23.24-2.75-5.64-1.25-9.71-4.72-14.42-8.74-12-10.2-30-25.61-95.35-25.61-81.85,0-105.32,33.2-108.37,38.16v21.68l-6,5,5.35,27H60.84Z" transform="translate(-36 -144.3)"/><path class="cls-1" d="M76.36,168.52,74.1,151.33a1.85,1.85,0,0,1,1.9-2.08l26.79,1H103L140,148.25" transform="translate(-36 -144.3)"/><path class="cls-1" d="M102.91,276.42a27.94,27.94,0,1,1,27.94-27.94A28,28,0,0,1,102.91,276.42Zm0-49.12a21.18,21.18,0,1,0,21.19,21.18A21.21,21.21,0,0,0,102.91,227.3Z" transform="translate(-36 -144.3)"/><path class="cls-1" d="M309.73,276.42a27.94,27.94,0,1,1,27.94-27.94A28,28,0,0,1,309.73,276.42Zm0-49.12a21.18,21.18,0,1,0,21.18,21.18A21.21,21.21,0,0,0,309.73,227.3Z" transform="translate(-36 -144.3)"/><rect class="cls-1" x="109.52" y="102.51" width="122.83" height="6.76"/><path class="cls-1" d="M160.2,199H89.51A2.69,2.69,0,0,1,87,197.37l-6-14.21a2.7,2.7,0,0,1,5-2.11l5.33,12.56H156.6l-5.66-19.51a2.7,2.7,0,1,1,5.19-1.51l6.67,23a2.71,2.71,0,0,1-2.6,3.46Z" transform="translate(-36 -144.3)"/><path class="cls-1" d="M247.14,199H177.75a2.71,2.71,0,0,1,0-5.41h64c-7.09-7.82-28.16-24.51-78.78-24.51a2.7,2.7,0,0,1,0-5.4c69.44,0,85.93,30.08,86.6,31.36a2.71,2.71,0,0,1-2.39,4Z" transform="translate(-36 -144.3)"/><path class="cls-1" d="M83.5,184.8A2.7,2.7,0,0,1,81.82,180c.69-.54,17.34-13.16,64.9-15.84a2.7,2.7,0,1,1,.31,5.4c-45.56,2.56-61.73,14.58-61.89,14.71A2.72,2.72,0,0,1,83.5,184.8Z" transform="translate(-36 -144.3)"/><path class="cls-1" d="M202.66,154.32a2.71,2.71,0,0,1-2.71-2.71V147a2.71,2.71,0,0,1,5.41,0v4.61A2.7,2.7,0,0,1,202.66,154.32Z" transform="translate(-36 -144.3)"/><path class="cls-1" d="M118.68,154.32a2.7,2.7,0,0,1-2.7-2.71V147a2.71,2.71,0,0,1,5.41,0v4.61A2.71,2.71,0,0,1,118.68,154.32Z" transform="translate(-36 -144.3)"/><polyline class="cls-1" points="314.68 63.62 298.29 63.62 301.71 72.41 322.22 72.41"/><circle class="cls-1" cx="66.91" cy="104.18" r="5.35"/><circle class="cls-1" cx="273.73" cy="104.18" r="5.35"/></svg>