<?xml version="1.0" encoding="utf-8"?>
<!-- Generator: Adobe Illustrator 23.0.0, SVG Export Plug-In . SVG Version: 6.00 Build 0)  -->
<svg version="1.1" id="Layer_1" xmlns="http://www.w3.org/2000/svg" xmlns:xlink="http://www.w3.org/1999/xlink" x="0px" y="0px"
	 viewBox="0 0 400 400" style="enable-background:new 0 0 400 400;" xml:space="preserve">
<style type="text/css">
	.st0{fill:#FFFFFF;}
	.st1{fill:none;stroke:#1F191A;stroke-width:1.2;stroke-miterlimit:10;}
</style>
<g>
	<g>
		<path class="st0" d="M334.16,371.46L46.48,342.19l19.01-186.88l287.69,29.26L334.16,371.46z M56.91,333.69l268.76,27.34
			l17.08-167.96L73.99,165.74L56.91,333.69z"/>
	</g>
	<g>
		
			<rect x="205.84" y="57.94" transform="matrix(0.1012 -0.9949 0.9949 0.1012 -10.0475 384.4274)" class="st0" width="3.8" height="279.66"/>
	</g>
	<g>
		
			<rect x="205.79" y="203.97" transform="matrix(0.1012 -0.9949 0.9949 0.1012 -140.9444 502.6022)" class="st0" width="3.8" height="250.68"/>
	</g>
	<g>
		<path class="st1" d="M338.45,187.86"/>
	</g>
	<g>
		
			<rect x="74.65" y="128.37" transform="matrix(0.8894 -0.4571 0.4571 0.8894 -45.6752 77.4533)" class="st0" width="125.18" height="9.51"/>
	</g>
	<g>
		
			<rect x="281.79" y="82.78" transform="matrix(0.6078 -0.7941 0.7941 0.6078 -5.2446 285.6544)" class="st0" width="9.51" height="130.72"/>
	</g>
	<g>
		<circle class="st0" cx="214.85" cy="93.27" r="11.27"/>
	</g>
	<g>
		<g>
			<path class="st0" d="M115.54,287.55c-0.66,0-1.32-0.03-1.99-0.1l0,0c-10.56-1.09-18.27-10.57-17.18-21.13l2.74-26.57
				c0.52-5.1,3.02-9.7,7.02-12.95c4-3.25,9.01-4.76,14.11-4.23c5.1,0.52,9.7,3.02,12.95,7.02c3.25,4,4.75,9.01,4.23,14.11
				l-2.74,26.57C133.67,280.16,125.28,287.55,115.54,287.55z M114.34,279.88c3.11,0.31,6.11-0.6,8.53-2.57
				c2.42-1.97,3.93-4.75,4.25-7.83l2.74-26.57c0.32-3.08-0.59-6.11-2.56-8.53c-1.97-2.42-4.75-3.93-7.83-4.25
				c-3.1-0.33-6.11,0.59-8.53,2.56c-2.42,1.97-3.93,4.75-4.25,7.83l-2.74,26.57C103.28,273.48,107.95,279.22,114.34,279.88
				L114.34,279.88z"/>
		</g>
		<g>
			<path class="st0" d="M176.39,266.96c-0.66,0-1.33-0.03-1.99-0.11l-14.2-1.46l0.78-7.57l14.2,1.46c6.33,0.64,12.13-4,12.79-10.39
				c0.32-3.08-0.59-6.11-2.56-8.53s-4.76-3.93-7.83-4.25l-14.2-1.46l0.78-7.57l14.2,1.46c5.1,0.52,9.7,3.02,12.95,7.02
				c3.26,4,4.76,9.01,4.23,14.11C194.51,259.57,186.13,266.96,176.39,266.96z"/>
		</g>
		<g>
			
				<rect x="127.81" y="255.42" transform="matrix(0.1026 -0.9947 0.9947 0.1026 -113.514 392.6199)" class="st0" width="66.04" height="7.61"/>
		</g>
		<g>
			
				<rect x="232.98" y="266.9" transform="matrix(0.1026 -0.9947 0.9947 0.1026 -30.802 507.2635)" class="st0" width="65.5" height="7.61"/>
		</g>
		<g>
			
				<rect x="260.54" y="269.74" transform="matrix(0.1026 -0.9947 0.9947 0.1026 -8.8884 537.2368)" class="st0" width="65.5" height="7.61"/>
		</g>
		<g>
			<polygon class="st0" points="238.49,300.09 208.54,297 215.2,232.35 245.15,235.44 244.37,243 221.99,240.7 216.89,290.21 
				239.27,292.52 			"/>
		</g>
		<g>
			
				<rect x="224.92" y="253.38" transform="matrix(0.1025 -0.9947 0.9947 0.1025 -59.8456 466.7287)" class="st0" width="7.61" height="26.3"/>
		</g>
		<g>
			
				<rect x="275.63" y="238.32" transform="matrix(0.9519 -0.3063 0.3063 0.9519 -69.8867 98.6778)" class="st0" width="7.61" height="67.35"/>
		</g>
	</g>
</g>
</svg>
