<?xml version="1.0" encoding="utf-8"?>
<!-- Generator: Adobe Illustrator 23.0.0, SVG Export Plug-In . SVG Version: 6.00 Build 0)  -->
<svg version="1.1" id="Layer_1" xmlns="http://www.w3.org/2000/svg" xmlns:xlink="http://www.w3.org/1999/xlink" x="0px" y="0px"
	 viewBox="0 0 400 400" style="enable-background:new 0 0 400 400;" xml:space="preserve">
<style type="text/css">
	.st0{fill:#FFFFFF;}
</style>
<g>
	<g>
		<polygon class="st0" points="363.17,219.91 345.52,219.91 349.2,210.44 367.39,210.44 		"/>
	</g>
	<g>
		<circle class="st0" cx="312.31" cy="251.83" r="5.45"/>
	</g>
	<g>
		<circle class="st0" cx="109.55" cy="251.83" r="5.45"/>
	</g>
	<g>
		<path class="st0" d="M282.56,266.06H150.2v-7.28h129.78l4.31-12.22c1.64-7.46,9.48-21.13,28.01-21.13
			c9.95,0,16.44,5.43,19.03,8.11h41.02l-0.81-9.99c-0.04-0.57,0.05-1.14,0.26-1.67l4.91-12.01v-1.29c0.02-3.19-0.67-6.61-9.12-7.08
			l-79.84-0.79c-0.92-0.01-1.81-0.37-2.48-1.01l-30.35-29.05c-6.85-5.41-10.84-7.31-15.58-7.31l-87.11,2.22
			c-29.84,0-52.32,31.92-52.54,32.24c-0.68,0.98-1.8,1.56-2.99,1.56H24.8l23.94,48.67l13.65,0.36c4.58-2.69,24.32-13.49,45.58-13.49
			c22.94,0,26.91,9.9,27.29,11.02l-6.84,2.46c-0.03-0.06-3-6.21-20.45-6.21c-21.69,0-42.48,12.84-42.69,12.97
			c-0.61,0.38-1.31,0.58-2.03,0.55l-16.9-0.45c-1.35-0.04-2.57-0.82-3.16-2.03l-25.27-51.37c-1.04-2.11-0.92-4.57,0.33-6.57
			c1.24-1.99,3.39-3.19,5.74-3.19h70.87c5.23-6.93,27.45-33.8,57.28-33.8l87.11-2.22c0,0,0,0,0.01,0c6.64,0,11.97,2.38,20.44,9.11
			l29.57,28.28l78.57,0.78c13.45,0.75,16.19,8.23,16.15,14.38v1.99c0,0.47-0.09,0.94-0.27,1.38l-4.86,11.87l1.06,13.05
			c0.08,1.01-0.27,2.01-0.96,2.76c-0.69,0.74-1.66,1.17-2.67,1.17h-46.6c-1.14,0-2.22-0.54-2.9-1.44c-0.2-0.26-5.28-6.67-14.49-6.67
			c-17.4,0-20.8,14.95-20.94,15.58l-5.38,15.34C285.48,265.09,284.1,266.06,282.56,266.06z"/>
	</g>
	<g>
		<path class="st0" d="M109.55,278.23c-14.55,0-26.4-11.84-26.4-26.4c0-3.27,0.59-6.46,1.75-9.47c0.56-1.47,1.28-2.92,2.12-4.3
			l6.21,3.8c-0.61,1-1.13,2.05-1.53,3.11c-0.84,2.18-1.26,4.49-1.26,6.86c0,10.54,8.58,19.12,19.12,19.12s19.12-8.58,19.12-19.12
			c0-1.51-0.17-2.99-0.51-4.42l7.08-1.69c0.47,1.98,0.71,4.03,0.71,6.1C135.95,266.38,124.1,278.23,109.55,278.23z"/>
	</g>
	<g>
		<path class="st0" d="M312.31,278.23c-14.55,0-26.4-11.84-26.4-26.4c0-14.55,11.84-26.4,26.4-26.4c14.55,0,26.4,11.84,26.4,26.4
			C338.7,266.38,326.86,278.23,312.31,278.23z M312.31,232.71c-10.54,0-19.12,8.58-19.12,19.12s8.58,19.12,19.12,19.12
			c10.54,0,19.12-8.58,19.12-19.12S322.85,232.71,312.31,232.71z"/>
	</g>
	<g>
		<path class="st0" d="M45.09,255.2H26.61c-3.45,0-6.55-2.31-7.52-5.63l-3.28-11.12c-0.7-2.39-0.25-4.91,1.25-6.91
			c1.49-1.99,3.78-3.14,6.28-3.14H35.9v7.28H23.33c-0.19,0-0.34,0.08-0.45,0.23c-0.11,0.15-0.14,0.32-0.09,0.49l3.28,11.13
			c0.07,0.24,0.28,0.4,0.54,0.4h18.48V255.2z"/>
	</g>
	<g>
		<path class="st0" d="M372.88,260.35h-29.86v-7.28h29.86c0.25,0,0.47-0.17,0.54-0.4l3.28-11.13c0.05-0.18,0.02-0.35-0.09-0.5
			c-0.11-0.15-0.26-0.22-0.45-0.22h-12.57v-7.28h12.57c2.5,0,4.78,1.15,6.28,3.14c1.5,2,1.95,4.51,1.25,6.91l-3.28,11.13
			C379.42,258.04,376.33,260.35,372.88,260.35z"/>
	</g>
	<g>
		<polygon class="st0" points="236.08,174.79 239.35,197.32 268.65,197.32 245.93,174.79 		"/>
	</g>
	<g>
		<path class="st0" d="M276.31,226.17H147.4c-0.51,0-1-0.13-1.44-0.38l-14.42-8.21H27.97c-1.61,0-2.91-1.3-2.91-2.91
			c0-1.61,1.3-2.91,2.91-2.91h104.34c0.51,0,1,0.13,1.44,0.38l14.42,8.21h128.14c1.61,0,2.91,1.3,2.91,2.91
			C279.22,224.87,277.92,226.17,276.31,226.17z"/>
	</g>
	<g>
		<path class="st0" d="M199.18,175.39c0,0-25.09,0.73-48.62,3.2c-5.87,0.62-11.95,2.68-17.19,6.01c-5.79,3.69-3.01,12.72,3.86,12.72
			h65.13L199.18,175.39z"/>
	</g>
	<g>
		<polygon class="st0" points="229.31,197.32 212.41,197.32 209.13,174.79 226.04,174.79 		"/>
	</g>
</g>
</svg>
