<?xml version="1.0" encoding="utf-8"?>
<!-- Generator: Adobe Illustrator 23.0.0, SVG Export Plug-In . SVG Version: 6.00 Build 0)  -->
<svg version="1.1" id="Layer_1" xmlns="http://www.w3.org/2000/svg" xmlns:xlink="http://www.w3.org/1999/xlink" x="0px" y="0px"
	 viewBox="0 0 400 400" style="enable-background:new 0 0 400 400;" xml:space="preserve">
<style type="text/css">
	.st0{fill:#FFFFFF;}
</style>
<g>
	<g>
		<path class="st0" d="M199.8,304.86c-0.01,0-0.02,0-0.04,0c-23.97-0.02-41.11-16.42-48.68-30.61
			c-5.76,10.94-17.38,22.61-34.18,24.58c-12.8,1.49-21.54-3.56-26.62-8.07c-6.78-6.03-11.17-14.84-11.18-22.43
			c0-2.35,1.9-4.25,4.24-4.25h0.01c2.34,0,4.24,1.9,4.24,4.24c0.01,4.19,2.61,11.01,8.33,16.09c3.77,3.36,10.32,7.13,19.99,5.99
			c20.05-2.34,30.84-22.46,30.84-30.17c0-2.35,1.9-4.25,4.24-4.25H151c2.34,0,4.24,1.9,4.24,4.24c0.01,8.99,15.82,36.14,44.53,36.16
			c0.01,0,0.02,0,0.03,0c15.09,0,25.67-7.41,31.89-13.63c8.55-8.55,12.53-18.45,12.53-22.45c0-2.34,1.9-4.25,4.24-4.25l0,0
			c2.34,0,4.24,1.9,4.24,4.24c0.01,7.71,10.84,27.85,30.9,30.23c9.68,1.14,16.2-2.61,19.97-5.95c5.71-5.07,8.3-11.89,8.3-16.07
			c0-2.34,1.9-4.25,4.24-4.25l0,0c2.34,0,4.24,1.9,4.24,4.24c0.01,7.59-4.37,16.39-11.15,22.42c-5.07,4.5-13.78,9.56-26.61,8.04
			c-16.81-1.99-28.45-13.69-34.22-24.63c-2.51,4.76-6.09,9.82-10.7,14.44C230.34,296.1,217.79,304.86,199.8,304.86z"/>
	</g>
	<g>
		<path class="st0" d="M117.43,226.78c-0.01,0-0.02,0-0.03,0c-15.15-0.01-26.94-9.43-33.24-18.38
			c-3.62,6.77-10.25,13.25-20.53,14.45c-8.88,1.02-14.95-2.48-18.47-5.62c-4.72-4.2-7.77-10.36-7.78-15.71
			c0-2.34,1.9-4.24,4.24-4.25c0.01,0,0.01,0,0.01,0c2.34,0,4.24,1.9,4.24,4.24c0,2.48,1.7,6.5,4.92,9.37
			c2.23,1.98,6.08,4.22,11.85,3.53c11.73-1.37,16.46-13.4,16.46-18.19c0-2.34,1.9-4.24,4.24-4.25c0.01,0,0.01,0,0.01,0
			c2.34,0,4.24,1.9,4.24,4.24c0.01,4.41,11.56,22.06,29.81,22.08c0.01,0,0.01,0,0.02,0c6.81,0,12.68-2.42,17.45-7.19
			c5.74-5.74,7.67-12.59,7.67-14.83c0-2.34,1.9-4.24,4.24-4.25c0.01,0,0.01,0,0.01,0c2.34,0,4.24,1.9,4.24,4.24
			c0.01,4.56,9.15,16.81,21.11,18.23c5.81,0.7,9.63-1.53,11.85-3.51c3.22-2.87,4.9-6.87,4.9-9.35c0-2.34,1.9-4.24,4.24-4.25
			c0.01,0,0.01,0,0.01,0c2.34,0,4.24,1.9,4.24,4.24c0.01,5.34-3.04,11.5-7.75,15.7c-3.53,3.14-9.63,6.64-18.49,5.6
			c-9.87-1.17-18.57-7.7-23.72-14.68c-1.64,3.06-3.83,6.14-6.55,8.86C134.55,223.43,126.44,226.78,117.43,226.78z"/>
	</g>
	<g>
		<path class="st0" d="M310.71,214.05c-10.9,0-20-8.01-25.04-18.26c-5.04,10.26-14.15,18.26-25.05,18.26
			c-17.25,0-29.29-11.48-29.29-27.91c0-2.34,1.9-4.24,4.24-4.24c2.34,0,4.24,1.9,4.24,4.24c0,13.42,10.44,19.43,20.8,19.43
			c11.52,0,20.8-14.99,20.8-27.39c0-2.34,1.9-4.24,4.24-4.24c2.34,0,4.24,1.9,4.24,4.24c0,12.41,9.28,27.39,20.8,27.39
			c11.47,0,20.8-10.27,20.8-22.89c0-2.34,1.9-4.24,4.24-4.24c2.34,0,4.24,1.9,4.24,4.24C340,199.97,326.86,214.05,310.71,214.05z"/>
	</g>
	<g>
		<path class="st0" d="M175.23,155.35c-12.22,0-22.16-10.61-22.16-23.66c0-2.34,1.9-4.24,4.24-4.24s4.24,1.9,4.24,4.24
			c0,8.36,6.13,15.17,13.67,15.17c7.63,0,20.27-9.61,20.27-19.84c0-2.34,1.9-4.24,4.24-4.24s4.24,1.9,4.24,4.24
			c0,10.24,7.54,18.57,16.81,18.57s16.81-8.33,16.81-18.57c0-2.34,1.9-4.24,4.24-4.24c2.34,0,4.24,1.9,4.24,4.24
			c0,14.92-11.35,27.06-25.3,27.06c-9.15,0-17.18-5.22-21.62-13.02C193.43,149.35,183.53,155.35,175.23,155.35z"/>
	</g>
</g>
</svg>
