<svg id="Layer_1" data-name="Layer 1" xmlns="http://www.w3.org/2000/svg" viewBox="0 0 296.55 231.82"><defs><style>.cls-1{fill:#fff;}</style></defs><title>Home</title><rect class="cls-1" x="257.21" y="82.48" width="8.4" height="89.64"/><polygon class="cls-1" points="261.41 231.73 37.14 231.73 37.14 82.48 45.54 82.48 45.54 223.33 261.41 223.33 261.41 231.73"/><polygon class="cls-1" points="9.87 78.19 6.19 70.63 151.37 0 296.55 70.63 292.88 78.19 151.37 9.34 9.87 78.19"/><rect class="cls-1" x="200.85" y="0.47" width="78.85" height="8.4"/><rect class="cls-1" x="213.82" y="4.67" width="8.4" height="31.23"/><rect class="cls-1" x="257.21" y="7.01" width="8.4" height="51.19"/><path class="cls-1" d="M73.39,315.73a30.67,30.67,0,1,1,14-57.94l-3.85,7.47a22,22,0,0,0-10.2-2.46,22.27,22.27,0,1,0,0,44.53Z" transform="translate(-42.72 -84)"/><polygon class="cls-1" points="179.81 226.38 171.41 226.38 171.41 143.41 130.89 143.41 130.89 205.68 122.49 205.68 122.49 135 179.81 135 179.81 226.38"/><path class="cls-1" d="M173.61,199H128.78V154.21h44.83Zm-36.43-8.4h28v-28h-28Z" transform="translate(-42.72 -84)"/><path class="cls-1" d="M259,199H214.13V154.21H259Zm-36.43-8.4h28v-28h-28Z" transform="translate(-42.72 -84)"/><circle class="cls-1" cx="158.42" cy="182" r="5.41"/><rect class="cls-1" x="19.09" y="108.98" width="22.25" height="8.4"/><rect class="cls-1" x="257.44" y="108.98" width="22.25" height="8.4"/><rect class="cls-1" x="139.66" y="24.85" width="21.68" height="3.36"/><rect class="cls-1" x="126.4" y="35.26" width="48.18" height="3.36"/><path class="cls-1" d="M124.73,315.82a23.56,23.56,0,1,1,23.56-23.56A23.59,23.59,0,0,1,124.73,315.82Zm0-38.71a15.15,15.15,0,1,0,15.15,15.15A15.16,15.16,0,0,0,124.73,277.11Z" transform="translate(-42.72 -84)"/><path class="cls-1" d="M309.69,315.82H289.07a23.56,23.56,0,0,1,0-47.12h20.62a23.56,23.56,0,1,1,0,47.12Zm-20.62-38.71a15.15,15.15,0,1,0,0,30.3h20.62a15.15,15.15,0,1,0,0-30.3Z" transform="translate(-42.72 -84)"/></svg>