<?xml version="1.0" encoding="utf-8"?>
<!-- Generator: Adobe Illustrator 23.0.0, SVG Export Plug-In . SVG Version: 6.00 Build 0)  -->
<svg version="1.1" id="Layer_1" xmlns="http://www.w3.org/2000/svg" xmlns:xlink="http://www.w3.org/1999/xlink" x="0px" y="0px"
	 viewBox="0 0 400 400" style="enable-background:new 0 0 400 400;" xml:space="preserve">
<style type="text/css">
	.st0{fill:#FFFFFF;}
</style>
<g>
	<g>
		<path class="st0" d="M305.91,295.65H112.42c-47.17,0-85.55-38.37-85.55-85.54s38.38-85.55,85.55-85.55H299.3
			c6.89,0,13.47,2.96,18.05,8.12c4.58,5.16,6.73,12.04,5.9,18.89L305.91,295.65z M112.42,132.88c-42.58,0-77.22,34.65-77.22,77.23
			s34.64,77.22,77.22,77.22h186.11l16.46-136.76c0.54-4.48-0.87-8.99-3.87-12.37c-3-3.38-7.31-5.32-11.82-5.32H112.42z"/>
	</g>
	<g>
		<rect x="307.01" y="247.51" class="st0" width="70.99" height="8.32"/>
	</g>
	<g>
		<polygon class="st0" points="196.56,287.51 188.24,287.51 188.24,172.51 252.86,172.51 252.86,268.94 244.53,268.94 
			244.53,180.83 196.56,180.83 		"/>
	</g>
	<g>
		
			<rect x="272.75" y="100.99" transform="matrix(0.5707 -0.8212 0.8212 0.5707 21.457 278.3298)" class="st0" width="8.33" height="35.31"/>
	</g>
	<g>
		<path class="st0" d="M159.83,317.23c-14.39,0-26.11-11.71-26.11-26.11h8.32c0,9.8,7.98,17.78,17.78,17.78s17.78-7.98,17.78-17.78
			h8.32C185.94,305.52,174.23,317.23,159.83,317.23z"/>
	</g>
	<g>
		<path class="st0" d="M206.6,317.23c-14.39,0-26.1-11.71-26.1-26.11h8.32c0,9.8,7.97,17.78,17.78,17.78
			c9.8,0,17.78-7.98,17.78-17.78h8.32C232.7,305.52,220.99,317.23,206.6,317.23z"/>
	</g>
	<g>
		<rect x="155.97" y="112.48" class="st0" width="72.57" height="16.24"/>
	</g>
	<g>
		<rect x="212.19" y="197.03" class="st0" width="17.4" height="30.68"/>
	</g>
	<g>
		<path class="st0" d="M131.29,247.34h-21.79c-19.88,0-36.86-14.83-38.67-33.75c-1.02-10.69,2.37-20.93,9.55-28.83
			c7.08-7.79,17.17-12.25,27.69-12.25h27.72c7.06,0,13.72,3.09,18.28,8.48c4.56,5.38,6.51,12.46,5.34,19.42l-4.49,26.92
			C152.98,238.92,143.04,247.34,131.29,247.34z M108.06,180.83c-8.18,0-16.03,3.47-21.53,9.53c-5.58,6.14-8.22,14.11-7.42,22.44
			c1.4,14.7,14.75,26.22,30.38,26.22h21.79c7.67,0,14.15-5.49,15.42-13.06l4.49-26.92c0.76-4.54-0.51-9.16-3.48-12.68
			c-2.98-3.51-7.32-5.53-11.93-5.53H108.06z"/>
	</g>
	<g>
		<rect x="22.43" y="208.21" class="st0" width="32.45" height="8.32"/>
	</g>
	<g>
		<rect x="270.43" y="208.21" class="st0" width="41.32" height="8.32"/>
	</g>
	<g>
		<path class="st0" d="M353.18,253.23H339.7c-6.92,0-12.55-5.63-12.55-12.55v-16.47c0-6.92,5.63-12.55,12.55-12.55h13.48
			c6.92,0,12.55,5.63,12.55,12.55v16.47C365.73,247.6,360.09,253.23,353.18,253.23z M339.7,219.99c-2.33,0-4.22,1.89-4.22,4.22
			v16.47c0,2.33,1.89,4.23,4.22,4.23h13.48c2.33,0,4.22-1.9,4.22-4.23v-16.47c0-2.33-1.89-4.22-4.22-4.22H339.7z"/>
	</g>
	<g>
		<rect x="339.31" y="203.13" class="st0" width="13.87" height="12.7"/>
	</g>
	<g>
		<path class="st0" d="M95.61,206.83c-0.29,0-0.59-0.08-0.86-0.24c-0.78-0.48-1.03-1.5-0.56-2.29c4.56-7.49,12.74-10.97,23.69-10.12
			c0.92,0.07,1.6,0.87,1.53,1.79c-0.07,0.92-0.91,1.63-1.79,1.53c-9.61-0.74-16.71,2.19-20.58,8.54
			C96.72,206.55,96.17,206.83,95.61,206.83z"/>
	</g>
</g>
</svg>
