<?xml version="1.0" encoding="utf-8"?>
<!-- Generator: Adobe Illustrator 23.0.0, SVG Export Plug-In . SVG Version: 6.00 Build 0)  -->
<svg version="1.1" id="Layer_1" xmlns="http://www.w3.org/2000/svg" xmlns:xlink="http://www.w3.org/1999/xlink" x="0px" y="0px"
	 viewBox="0 0 400 400" style="enable-background:new 0 0 400 400;" xml:space="preserve">
<style type="text/css">
	.st0{fill:#FFFFFF;}
</style>
<g>
	<g>
		<path class="st0" d="M73.44,307.82c-27.99,0-50.76-22.77-50.76-50.76c0-27.99,22.77-50.77,50.76-50.77s50.76,22.77,50.76,50.77
			C124.21,285.04,101.44,307.82,73.44,307.82z M73.44,214.5c-23.46,0-42.55,19.09-42.55,42.55c0,23.46,19.08,42.55,42.55,42.55
			s42.55-19.09,42.55-42.55C115.99,233.59,96.9,214.5,73.44,214.5z"/>
	</g>
	<g>
		<path class="st0" d="M316.75,307.82c-27.99,0-50.77-22.77-50.77-50.76c0-27.99,22.78-50.77,50.77-50.77s50.76,22.77,50.76,50.77
			C367.52,285.04,344.75,307.82,316.75,307.82z M316.75,214.5c-23.46,0-42.55,19.09-42.55,42.55c0,23.46,19.09,42.55,42.55,42.55
			s42.55-19.09,42.55-42.55C359.3,233.59,340.21,214.5,316.75,214.5z"/>
	</g>
	<g>
		<path class="st0" d="M342.81,261.16c-2.27,0-4.11-1.84-4.11-4.11c0-12.1-9.84-21.95-21.95-21.95s-21.95,9.85-21.95,21.95
			c0,2.27-1.84,4.11-4.11,4.11c-2.27,0-4.11-1.84-4.11-4.11c0-16.63,13.53-30.17,30.17-30.17s30.17,13.53,30.17,30.17
			C346.92,259.32,345.08,261.16,342.81,261.16z"/>
	</g>
	<g>
		<path class="st0" d="M99.4,261.16c-2.27,0-4.11-1.84-4.11-4.11c0-12.1-9.84-21.95-21.95-21.95s-21.95,9.85-21.95,21.95
			c0,2.27-1.84,4.11-4.11,4.11s-4.11-1.84-4.11-4.11c0-16.63,13.53-30.17,30.17-30.17s30.17,13.53,30.17,30.17
			C103.51,259.32,101.67,261.16,99.4,261.16z"/>
	</g>
	<g>
		<path class="st0" d="M316.76,262.1c-1.5,0-2.95-0.82-3.67-2.26l-58.06-114.91l-43.88,10.45c-2.22,0.54-4.42-0.83-4.95-3.04
			c-0.52-2.21,0.83-4.42,3.04-4.95l50.19-11.96l60.98,120.7c1.03,2.03,0.21,4.5-1.81,5.52C318.01,261.95,317.38,262.1,316.76,262.1z
			"/>
	</g>
	<g>
		<path class="st0" d="M285.51,194.13c-1.55,0-3.02-0.87-3.72-2.36c-0.96-2.05-0.09-4.5,1.97-5.47c4.79-2.26,7.89-7.13,7.89-12.43
			c0-7.57-6.16-13.73-13.72-13.73c-2.03,0-3.98,0.43-5.8,1.28c-2.05,0.96-4.51,0.06-5.46-1.99c-0.96-2.06-0.07-4.5,1.99-5.46
			c2.92-1.36,6.04-2.05,9.27-2.05c12.1,0,21.94,9.84,21.94,21.94c0,8.46-4.95,16.26-12.61,19.86
			C286.69,194,286.09,194.13,285.51,194.13z"/>
	</g>
	<g>
		<path class="st0" d="M163.94,272.63c-1.31,0-2.54-0.62-3.31-1.67l-47.87-64.99c-0.91-1.24-1.06-2.88-0.37-4.26
			c0.68-1.38,2.08-2.26,3.62-2.28l57.99-0.85c34.42-36.86,69.84-35.27,71.37-35.15c1.48,0.09,2.8,0.97,3.46,2.31l18.34,37.76
			c0.55,1.13,0.55,2.45,0,3.59l-30.64,63.23c-0.68,1.42-2.12,2.32-3.7,2.32L163.94,272.63z M124.11,207.53l41.9,56.89l64.25-0.01
			l28.64-59.11l-16.33-33.63c-8.17,0.38-36.54,3.94-63.71,33.76c-0.77,0.84-1.85,1.33-2.98,1.34L124.11,207.53z"/>
	</g>
	<g>
		<polyline class="st0" points="27.44,237.39 18.12,205.47 73.34,205.47 		"/>
	</g>
	<g>
		<path class="st0" d="M73.45,261.16c-1.49,0-2.93-0.81-3.65-2.22c-1.04-2.02-0.25-4.5,1.77-5.54l59.44-30.7
			c2.02-1.04,4.5-0.24,5.53,1.77c1.04,2.02,0.25,4.5-1.77,5.54l-59.44,30.7C74.73,261.01,74.08,261.16,73.45,261.16z"/>
	</g>
	<g>
		<ellipse class="st0" cx="234.63" cy="121.69" rx="6.62" ry="10.69"/>
	</g>
	<g>
		<path class="st0" d="M247.17,142.41c-2.4-17.98-12.25-19.04-12.67-19.08l0.24-3.28c0.52,0.04,12.91,1.12,15.68,21.92
			L247.17,142.41z"/>
	</g>
	<g>
		<path class="st0" d="M266.93,163.49c-1.65,0-3.2-1-3.83-2.62c-0.82-2.12,0.23-4.5,2.35-5.32l28.82-11.17
			c2.12-0.82,4.49,0.23,5.31,2.35c0.82,2.12-0.23,4.5-2.35,5.32l-28.82,11.17C267.93,163.4,267.43,163.49,266.93,163.49z"/>
	</g>
	<g>
		<path class="st0" d="M263.47,156.32c-2.04,0-3.81-1.52-4.07-3.61c-0.28-2.25,1.32-4.3,3.57-4.58l32.28-3.99
			c2.29-0.28,4.3,1.32,4.58,3.57s-1.32,4.3-3.57,4.58l-32.28,3.99C263.8,156.31,263.63,156.32,263.47,156.32z"/>
	</g>
	<g>
		<path class="st0" d="M215.04,248.08h-42c-2.27,0-4.11-1.84-4.11-4.11c0-2.27,1.84-4.11,4.11-4.11h42c4.89,0,8.87-3.98,8.87-8.87
			s-3.98-8.87-8.87-8.87h-28.51c-2.27,0-4.11-1.84-4.11-4.11s1.84-4.11,4.11-4.11h28.51c9.42,0,17.09,7.66,17.09,17.09
			S224.46,248.08,215.04,248.08z"/>
	</g>
	<g>
		<path class="st0" d="M233.97,188.72l7.74,15.3h-41.19C200.53,204.02,212.01,191.69,233.97,188.72z"/>
	</g>
</g>
</svg>
