<?xml version="1.0" encoding="utf-8"?>
<!-- Generator: Adobe Illustrator 23.0.0, SVG Export Plug-In . SVG Version: 6.00 Build 0)  -->
<svg version="1.1" id="Layer_1" xmlns="http://www.w3.org/2000/svg" xmlns:xlink="http://www.w3.org/1999/xlink" x="0px" y="0px"
	 viewBox="0 0 400 400" style="enable-background:new 0 0 400 400;" xml:space="preserve">
<style type="text/css">
	.st0{fill:#FFFFFF;}
	.st1{filter:url(#Adobe_OpacityMaskFilter);}
	.st2{fill:none;stroke:#000000;stroke-linecap:round;stroke-linejoin:round;stroke-miterlimit:10;}
	.st3{mask:url(#SVGID_1_);}
</style>
<g>
	<g>
		<path class="st0" d="M193.6,308.03c-10.15,0-20.29-5.42-30.18-16.1c-17.09-0.7-32.83-10.1-41.51-24.92l-18.74-24.01
			c-14.77-18.92-17.73-44.22-7.74-66.04l26.12-57.03c9.18-15.94,25.93-25.61,43.91-25.61h55.83c17.97,0,34.73,9.67,43.71,25.23
			l26.32,57.41c9.99,21.82,7.03,47.12-7.74,66.03l-18.74,24.01c-8.68,14.8-24.4,24.21-41.48,24.92
			c-9.53,10.6-19.46,16.02-29.55,16.1C193.74,308.03,193.67,308.03,193.6,308.03z M165.46,103.35c-14.76,0-28.52,7.94-35.9,20.72
			l-25.93,56.65c-8.58,18.74-6.04,40.48,6.64,56.73l18.93,24.25c0.13,0.17,0.25,0.34,0.35,0.52c7.38,12.78,21.14,20.72,35.9,20.72
			c1.29,0,2.53,0.56,3.38,1.53c8.56,9.7,17.19,14.46,24.91,14.53c7.83-0.06,15.94-4.93,24.11-14.48c0.86-1,2.11-1.58,3.43-1.58
			c14.76,0,28.52-7.94,35.9-20.72c0.11-0.18,0.22-0.35,0.35-0.52l18.93-24.25c12.68-16.25,15.23-37.99,6.64-56.72l-26.12-57.03
			c-7.19-12.41-20.95-20.35-35.71-20.35H165.46z"/>
	</g>
	<g>
		<path class="st0" d="M134.36,203.88c-11.2,0-20.3-9.1-20.3-20.3s9.1-20.3,20.3-20.3s20.3,9.1,20.3,20.3
			S145.55,203.88,134.36,203.88z M134.36,172.3c-6.22,0-11.28,5.06-11.28,11.28s5.06,11.28,11.28,11.28s11.28-5.06,11.28-11.28
			S140.58,172.3,134.36,172.3z"/>
	</g>
	<g>
		<path class="st0" d="M252.25,203.88c-11.2,0-20.3-9.1-20.3-20.3s9.1-20.3,20.3-20.3c11.2,0,20.3,9.1,20.3,20.3
			S263.45,203.88,252.25,203.88z M252.25,172.3c-6.22,0-11.28,5.06-11.28,11.28s5.06,11.28,11.28,11.28s11.28-5.06,11.28-11.28
			S258.47,172.3,252.25,172.3z"/>
	</g>
	<g>
		<path class="st0" d="M262.36,269.84h-9.02c0-8.82-5.02-17.76-9.87-26.42c-3.5-6.24-6.81-12.15-8.34-18.06
			c-6.65-25.83-33.59-42.54-41.42-42.54c-7.82,0-34.71,16.65-41.38,42.38c-1.53,5.92-4.84,11.82-8.34,18.08
			c-4.87,8.69-9.91,17.69-9.91,26.56h-9.02c0-11.23,5.87-21.71,11.06-30.97c3.21-5.73,6.24-11.14,7.48-15.92
			c7.48-28.88,36.98-49.15,50.12-49.15c13.16,0,42.7,20.34,50.16,49.32c1.23,4.77,4.26,10.17,7.47,15.89
			C256.5,248.23,262.36,258.67,262.36,269.84z"/>
	</g>
	<g>
		<path class="st0" d="M225.83,169.59c-0.53,0-1.06-0.23-1.42-0.69c-4.27-5.44-18.04-9.87-30.69-9.87
			c-12.63,0-26.39,4.41-30.66,9.83c-0.61,0.79-1.76,0.92-2.53,0.3c-0.78-0.62-0.92-1.75-0.3-2.53c5.74-7.28,21.54-11.21,33.49-11.21
			c11.98,0,27.8,3.94,33.53,11.24c0.61,0.79,0.48,1.92-0.31,2.54C226.61,169.47,226.22,169.59,225.83,169.59z"/>
	</g>
	<g>
		<path class="st0" d="M131.94,222.71c-7.17,0-16.39-4.89-19.81-13.35c-0.37-0.92,0.08-1.97,1-2.35c0.93-0.37,1.97,0.07,2.35,1
			c2.87,7.1,11.14,11.24,16.85,11.08c5.88-0.19,13.71-4.92,16.1-12.21c0.31-0.95,1.34-1.44,2.28-1.15c0.95,0.31,1.46,1.33,1.15,2.28
			c-2.92,8.89-12.16,14.46-19.41,14.69C132.28,222.71,132.11,222.71,131.94,222.71z"/>
	</g>
	<g>
		<path class="st0" d="M255.71,222.71c-7.17,0-16.39-4.89-19.81-13.35c-0.37-0.92,0.08-1.97,1-2.35c0.93-0.37,1.97,0.07,2.35,1
			c2.87,7.1,11.02,11.24,16.85,11.08c5.88-0.19,13.71-4.92,16.1-12.21c0.31-0.95,1.34-1.44,2.28-1.15c0.95,0.31,1.46,1.33,1.15,2.28
			c-2.92,8.89-12.16,14.46-19.41,14.69C256.05,222.71,255.88,222.71,255.71,222.71z"/>
	</g>
	<g>
		<path class="st0" d="M275.65,164.19l-1.05-8.96l7.33-0.86c4.45-0.52,8.38-2.98,10.78-6.77l1.06-1.68c1.4-2.21,2.19-4.74,2.3-7.34
			l0.7-17.27c0.02-0.71,0.05-1.32,4.43-19.11c2.19-8.86,2.61-17.93,1.26-26.96l-0.38-2.58c-1.23-3.74-3.84-6.77-7.36-8.56
			c-3.47-1.77-7.4-2.1-11.11-0.93l-16.24,10.01c-3.2,1.97-5.97,4.68-8.02,7.84l-15.51,23.85l-7.57-4.92l15.51-23.85
			c2.77-4.26,6.53-7.92,10.86-10.6l16.69-10.29c0.28-0.17,0.58-0.31,0.89-0.42c6.17-2.14,12.76-1.69,18.59,1.27
			c5.82,2.95,10.08,8.02,11.99,14.26c0.06,0.21,0.12,0.43,0.15,0.65l0.44,2.94c1.52,10.2,1.04,20.44-1.43,30.45
			c-3.45,14-4.12,17.07-4.21,17.65l-0.68,16.93c-0.16,4.18-1.44,8.26-3.69,11.8l-1.06,1.68c-3.87,6.1-10.2,10.07-17.36,10.9
			L275.65,164.19z"/>
	</g>
	<g>
		<path class="st0" d="M116.25,154.55l-7.2-1.64c-7.04-1.61-12.89-6.24-16.07-12.71l-0.89-1.8c-1.84-3.75-2.67-7.94-2.39-12.12
			l1.17-17.25c-0.05-0.48-0.67-5.64-2.28-17.66c-1.37-10.2-0.74-20.44,1.87-30.42l0.75-2.87c0.06-0.22,0.13-0.43,0.22-0.64
			c2.58-6,7.36-10.57,13.46-12.88c6.11-2.31,12.71-2.05,18.62,0.75c0.29,0.14,0.58,0.31,0.83,0.52l15.48,12.03
			c4.02,3.11,7.35,7.17,9.65,11.7l12.83,25.39l-8.05,4.07l-12.83-25.38c-1.7-3.35-4.16-6.35-7.14-8.65l-15.07-11.71
			c-3.57-1.55-7.5-1.66-11.15-0.27c-3.69,1.39-6.61,4.13-8.24,7.71l-0.66,2.52c-2.31,8.85-2.87,17.91-1.66,26.94
			c2.44,18.07,2.38,18.84,2.34,19.45l-1.17,17.26c-0.18,2.59,0.34,5.2,1.49,7.52l0.89,1.81c1.97,4.01,5.61,6.89,9.98,7.89l7.2,1.64
			L116.25,154.55z"/>
	</g>
	<g>
		<path class="st0" d="M161.55,258.91c-2.64,0-5-0.67-6.86-2.27c-9.86-8.48-16.52-18.52-16.81-18.94c-0.55-0.83-0.32-1.95,0.52-2.5
			c0.83-0.56,1.94-0.32,2.5,0.51c0.07,0.1,6.68,10.06,16.14,18.19c6.16,5.29,24.35-5.54,34.87-13.96v-40.89c0-1,0.8-1.8,1.8-1.8
			c1,0,1.8,0.8,1.8,1.8v40.89c10.52,8.41,28.71,19.27,34.86,13.96c9.47-8.15,16.07-18.09,16.14-18.19c0.56-0.83,1.67-1.06,2.5-0.52
			c0.83,0.55,1.06,1.67,0.52,2.5c-0.28,0.42-6.95,10.47-16.81,18.94c-9.74,8.4-33.05-8.83-39.01-13.52
			C188.87,246.91,172.71,258.91,161.55,258.91z"/>
	</g>
	<g>
		<path class="st0" d="M193.37,334.9c-51.85,0-88.06-37.16-88.06-90.37h9.02c0,48.66,31.77,81.35,79.04,81.35
			s79.04-32.69,79.04-81.35h9.02C281.43,297.74,245.22,334.9,193.37,334.9z"/>
	</g>
	<g>
		<circle class="st0" cx="191.87" cy="349.28" r="21.96"/>
	</g>
	<g>
		<path class="st0" d="M209.87,221.95c-3.03,0-5.4-0.99-7.06-2.95c-3.28-3.87-2.28-10.07-2.24-10.34c0.16-0.99,1.11-1.66,2.07-1.48
			c0.98,0.16,1.64,1.09,1.49,2.07c-0.22,1.34-0.39,5.27,1.44,7.42c0.95,1.12,2.36,1.67,4.3,1.67c2.78,0,4.05-2.63,4.05-5.06
			c0-2.91-1.57-5.83-4.31-8.01c-3.62-2.88-9.13-4.41-15.91-4.41c-6.78,0-12.28,1.53-15.91,4.41c-2.74,2.19-4.31,5.1-4.31,8.01
			c0,2.43,1.27,5.06,4.05,5.06c1.94,0,3.35-0.55,4.31-1.68c2.17-2.57,1.44-7.36,1.43-7.41c-0.16-0.98,0.5-1.91,1.48-2.08
			c0.98-0.16,1.91,0.5,2.08,1.48c0.04,0.26,1.04,6.47-2.24,10.34c-1.66,1.96-4.04,2.95-7.06,2.95c-4.44,0-7.66-3.64-7.66-8.66
			c0-4.02,2.07-7.97,5.67-10.83c4.27-3.4,10.54-5.2,18.15-5.2c7.61,0,13.88,1.8,18.15,5.2c3.61,2.87,5.67,6.81,5.67,10.83
			C217.53,218.3,214.31,221.95,209.87,221.95z"/>
	</g>
	<defs>
		<filter id="Adobe_OpacityMaskFilter" filterUnits="userSpaceOnUse" x="175.03" y="239.73" width="37.34" height="34.78">
			<feFlood  style="flood-color:white;flood-opacity:1" result="back"/>
			<feBlend  in="SourceGraphic" in2="back" mode="normal"/>
		</filter>
	</defs>
	<mask maskUnits="userSpaceOnUse" x="175.03" y="239.73" width="37.34" height="34.78" id="SVGID_1_">
		<g class="st1">
			<line class="st2" x1="193.57" y1="208.71" x2="193.57" y2="257.29"/>
		</g>
	</mask>
	<g class="st3">
		<path class="st0" d="M193.7,274.51L193.7,274.51c-10.31,0-18.67-8.36-18.67-18.67v-1.75l18.67-14.36l18.67,14.36v1.75
			C212.38,266.15,204.02,274.51,193.7,274.51z"/>
	</g>
</g>
</svg>
