<?xml version="1.0" encoding="utf-8"?>
<!-- Generator: Adobe Illustrator 23.0.0, SVG Export Plug-In . SVG Version: 6.00 Build 0)  -->
<svg version="1.1" id="Layer_1" xmlns="http://www.w3.org/2000/svg" xmlns:xlink="http://www.w3.org/1999/xlink" x="0px" y="0px"
	 viewBox="0 0 400 400" style="enable-background:new 0 0 400 400;" xml:space="preserve">
<style type="text/css">
	.st0{fill:#FFFFFF;}
	.st1{filter:url(#Adobe_OpacityMaskFilter);}
	.st2{mask:url(#SVGID_1_);}
	.st3{filter:url(#Adobe_OpacityMaskFilter_1_);}
	.st4{mask:url(#SVGID_2_);}
</style>
<g>
	<g>
		<path class="st0" d="M329.78,269.25H81.29V92h248.48V269.25z M90.14,260.41h230.8V100.84H90.14V260.41z"/>
	</g>
	<g>
		<rect x="81.29" y="264.83" class="st0" width="8.84" height="61.58"/>
	</g>
	<g>
		<rect x="320.94" y="264.83" class="st0" width="8.84" height="61.58"/>
	</g>
	<defs>
		<filter id="Adobe_OpacityMaskFilter" filterUnits="userSpaceOnUse" x="37.23" y="289.86" width="38.48" height="42.34">
			<feFlood  style="flood-color:white;flood-opacity:1" result="back"/>
			<feBlend  in="SourceGraphic" in2="back" mode="normal"/>
		</filter>
	</defs>
	<mask maskUnits="userSpaceOnUse" x="37.23" y="289.86" width="38.48" height="42.34" id="SVGID_1_">
		<g class="st1">
			<rect x="39.84" y="326.41" width="38.11" height="9.88"/>
		</g>
	</mask>
	<g class="st2">
		<g>
			
				<rect x="66.25" y="289.46" transform="matrix(0.9526 -0.3041 0.3041 0.9526 -90.821 35.3324)" class="st0" width="3.54" height="39.53"/>
		</g>
		<g>
			
				<rect x="61.61" y="296.79" transform="matrix(0.7907 -0.6123 0.6123 0.7907 -178.5741 104.3951)" class="st0" width="3.54" height="33.09"/>
		</g>
		<g>
			
				<rect x="47.08" y="291.54" transform="matrix(0.8801 -0.4748 0.4748 0.8801 -142.6321 60.6959)" class="st0" width="3.54" height="42.35"/>
		</g>
		<g>
			
				<rect x="44.62" y="314.5" transform="matrix(0.8011 -0.5985 0.5985 0.8011 -183.8385 91.9225)" class="st0" width="3.54" height="16.11"/>
		</g>
	</g>
	<g>
		<g>
			<path class="st0" d="M202.08,173.08C202.08,173.08,202.08,173.08,202.08,173.08c-7.99,0-14.49-6.5-14.49-14.48v-18.92
				c0-7.99,6.5-14.48,14.48-14.48c7.99,0,14.48,6.5,14.48,14.48v18.92c0,3.86-1.51,7.49-4.25,10.23
				C209.57,171.58,205.93,173.08,202.08,173.08z M202.08,132.28c-4.08,0-7.41,3.32-7.41,7.41v18.92c0,4.08,3.32,7.41,7.41,7.41h0
				c0,0,0,0,0,0c1.97,0,3.82-0.77,5.22-2.18c1.4-1.41,2.18-3.26,2.18-5.23v-18.92C209.48,135.6,206.16,132.28,202.08,132.28z"/>
		</g>
		<g>
			<g>
				<rect x="148.19" y="147.09" class="st0" width="17.08" height="7.07"/>
			</g>
			<g>
				<rect x="148.19" y="125.2" class="st0" width="21.06" height="7.07"/>
			</g>
			<g>
				<rect x="144.65" y="124.55" class="st0" width="7.07" height="47.76"/>
			</g>
		</g>
		<g>
			<g>
				<path class="st0" d="M251.94,154.16h-10.11v-7.07h10.11c4.08,0,7.41-3.32,7.41-7.41c0-4.08-3.32-7.41-7.41-7.41h-10.11v-7.07
					h10.11c7.99,0,14.48,6.5,14.48,14.48C266.42,147.67,259.92,154.16,251.94,154.16z"/>
			</g>
			<g>
				<rect x="238.28" y="124.47" class="st0" width="7.07" height="47.84"/>
			</g>
			<g>
				<path class="st0" d="M259.36,172.68l-1.24-11.9c-0.1-1.21-0.92-6.62-8.51-6.62v-7.07c11.72,0,15.3,8.59,15.56,13.13l1.23,11.73
					L259.36,172.68z"/>
			</g>
		</g>
	</g>
	<g>
		<g>
			<rect x="173.5" y="208.83" class="st0" width="18.63" height="7.07"/>
		</g>
		<g>
			<g>
				<rect x="261.8" y="188.56" class="st0" width="25.26" height="7.07"/>
			</g>
			<g>
				<rect x="270.89" y="188.9" class="st0" width="7.07" height="46.77"/>
			</g>
		</g>
		<g>
			<rect x="214.14" y="187.78" class="st0" width="7.07" height="48.04"/>
		</g>
		<g>
			<rect x="233.77" y="187.78" class="st0" width="7.07" height="48.04"/>
		</g>
		<g>
			<polygon class="st0" points="192.13,236.14 169.97,236.14 169.97,188.42 192.13,188.42 192.13,195.5 177.04,195.5 177.04,229.07 
				192.13,229.07 			"/>
		</g>
		<g>
			
				<rect x="223.92" y="187.47" transform="matrix(0.9211 -0.3894 0.3894 0.9211 -64.5049 105.2942)" class="st0" width="7.08" height="48.57"/>
		</g>
		<g>
			<g>
				<path class="st0" d="M134.13,217.61h-10.12v-7.07h10.12c4.08,0,7.41-3.32,7.41-7.41c0-4.08-3.32-7.41-7.41-7.41h-10.12v-7.07
					h10.12c7.99,0,14.48,6.5,14.48,14.48C148.61,211.11,142.11,217.61,134.13,217.61z"/>
			</g>
			<g>
				<rect x="120.47" y="188" class="st0" width="7.07" height="47.76"/>
			</g>
			<g>
				<path class="st0" d="M141.56,236.12l-1.24-11.9c-0.1-1.21-0.92-6.62-8.5-6.62v-7.07c11.72,0,15.3,8.59,15.55,13.12l1.23,11.73
					L141.56,236.12z"/>
			</g>
		</g>
	</g>
	<defs>
		<filter id="Adobe_OpacityMaskFilter_1_" filterUnits="userSpaceOnUse" x="334.16" y="286.95" width="33.97" height="47.34">
			<feFlood  style="flood-color:white;flood-opacity:1" result="back"/>
			<feBlend  in="SourceGraphic" in2="back" mode="normal"/>
		</filter>
	</defs>
	<mask maskUnits="userSpaceOnUse" x="334.16" y="286.95" width="33.97" height="47.34" id="SVGID_2_">
		<g class="st3">
			<rect x="332.53" y="326.41" width="38.66" height="9.88"/>
		</g>
	</mask>
	<g class="st4">
		<g>
			<path class="st0" d="M341.56,327.56l-3.47-0.7c2.03-10.11,6.44-19.59,12.76-27.4c3.85-4.75,8.4-8.92,13.52-12.4l1.99,2.93
				c-4.84,3.27-9.13,7.21-12.75,11.69C347.65,309.06,343.48,318.01,341.56,327.56z"/>
		</g>
		<g>
			<path class="st0" d="M346.54,331.73l-2.6-2.39c4.51-4.9,8.53-10.27,11.96-15.97c1.99-3.3,3.8-6.76,5.39-10.29l3.22,1.45
				c-1.65,3.66-3.53,7.25-5.58,10.67C355.38,321.09,351.21,326.65,346.54,331.73z"/>
		</g>
		<g>
			<path class="st0" d="M354.15,334.29l-2.95-1.96c2.55-3.84,5.49-7.42,8.73-10.65c1.89-1.88,3.91-3.66,6.02-5.31l2.18,2.79
				c-1.99,1.56-3.91,3.25-5.7,5.03C359.35,327.25,356.57,330.65,354.15,334.29z"/>
		</g>
		<g>
			<path class="st0" d="M337.29,333.61l-3.13-1.64c3.22-6.15,5.57-12.71,7-19.48c1.74-8.24,2.08-16.68,1.02-25.09l3.51-0.44
				c1.11,8.8,0.74,17.64-1.07,26.27C343.13,320.3,340.66,327.16,337.29,333.61z"/>
		</g>
	</g>
	<g>
		<rect x="85.71" y="322.51" class="st0" width="239.64" height="3.53"/>
	</g>
</g>
</svg>
