<?xml version="1.0" encoding="utf-8"?>
<!-- Generator: Adobe Illustrator 23.0.0, SVG Export Plug-In . SVG Version: 6.00 Build 0)  -->
<svg version="1.1" id="Layer_1" xmlns="http://www.w3.org/2000/svg" xmlns:xlink="http://www.w3.org/1999/xlink" x="0px" y="0px"
	 viewBox="0 0 400 400" style="enable-background:new 0 0 400 400;" xml:space="preserve">
<style type="text/css">
	.st0{fill:#FFFFFF;}
</style>
<g>
	<g>
		<path class="st0" d="M210.33,350.84c-16.16,0-29.3-13.14-29.3-29.3V218.26c0-2.88,2.34-5.22,5.22-5.22c2.88,0,5.22,2.34,5.22,5.22
			v103.28c0,10.4,8.46,18.86,18.86,18.86c10.4,0,18.85-8.46,18.85-18.86c0-2.88,2.34-5.22,5.22-5.22c2.88,0,5.22,2.34,5.22,5.22
			C239.62,337.7,226.48,350.84,210.33,350.84z"/>
	</g>
	<g>
		<path class="st0" d="M338.78,223.48c-2.88,0-5.22-2.34-5.22-5.22c0-80.79-65.73-146.52-146.51-146.52
			c-80.79,0-146.52,65.73-146.52,146.52c0,2.88-2.34,5.22-5.22,5.22s-5.22-2.34-5.22-5.22c0-86.54,70.41-156.95,156.96-156.95
			c86.54,0,156.95,70.41,156.95,156.95C344,221.14,341.66,223.48,338.78,223.48z"/>
	</g>
	<g>
		<path class="st0" d="M248.3,233.5c-2.88,0-5.22-2.34-5.22-5.22c0-8.69-24.57-37.09-57.64-37.09s-57.64,28.4-57.64,37.09
			c0,2.88-2.34,5.22-5.22,5.22c-2.88,0-5.22-2.34-5.22-5.22c0-10.16-17.91-37.09-39.43-37.09c-21.97,0-37.4,17.56-37.4,27.07
			c0,2.88-2.34,5.22-5.22,5.22s-5.22-2.34-5.22-5.22c0-15.1,20.08-37.51,47.83-37.51c20.07,0,37.59,17.02,45.46,32.41
			c10.74-15.39,34.66-32.41,62.05-32.41c27.47,0,51.44,17.1,62.14,32.53c8.09-15.42,26.23-32.53,47.02-32.53
			c26.61,0,49.4,20.62,49.4,37.51c0,2.88-2.34,5.22-5.22,5.22c-2.88,0-5.22-2.34-5.22-5.22c0-9.51-16.07-27.07-38.97-27.07
			c-22.42,0-41.08,26.93-41.08,37.09C253.52,231.16,251.18,233.5,248.3,233.5z"/>
	</g>
	<g>
		<path class="st0" d="M186.25,66.69c-2.3,0-4.17-1.87-4.17-4.18v-9.7c0-2.31,1.87-4.18,4.17-4.18c2.3,0,4.17,1.87,4.17,4.18v9.7
			C190.42,64.82,188.55,66.69,186.25,66.69z"/>
	</g>
	<g>
		<path class="st0" d="M187.05,90.32c-24.57,0-49.44-5.44-49.44-15.85c0-1.15,0.93-2.09,2.09-2.09c1.16,0,2.09,0.93,2.09,2.09
			c0,4.87,17.22,11.68,45.27,11.68c28.04,0,45.26-6.8,45.26-11.68c0-1.15,0.93-2.09,2.09-2.09c1.16,0,2.09,0.93,2.09,2.09
			C236.49,84.88,211.62,90.32,187.05,90.32z"/>
	</g>
	<g>
		<path class="st0" d="M125.33,176.58c-0.05,0-0.1,0-0.14,0c-1.15-0.08-2.02-1.08-1.94-2.23c0.1-1.51,2.83-37.34,29.04-70.47
			c0.72-0.9,2.02-1.06,2.94-0.34c0.9,0.72,1.05,2.03,0.34,2.93c-25.37,32.09-28.13,67.81-28.16,68.17
			C127.33,175.74,126.42,176.58,125.33,176.58z"/>
	</g>
	<g>
		<path class="st0" d="M238.76,154.28c-1.07,0-1.99-0.83-2.08-1.91c-0.02-0.24-2.24-24.22-22.47-45.77
			c-0.79-0.84-0.75-2.16,0.1-2.95c0.84-0.78,2.17-0.74,2.95,0.1c21.27,22.66,23.5,47.24,23.58,48.28c0.1,1.15-0.76,2.15-1.91,2.25
			C238.88,154.28,238.82,154.28,238.76,154.28z"/>
	</g>
</g>
</svg>
