<?xml version="1.0" encoding="utf-8"?>
<!-- Generator: Adobe Illustrator 23.0.0, SVG Export Plug-In . SVG Version: 6.00 Build 0)  -->
<svg version="1.1" id="Layer_1" xmlns="http://www.w3.org/2000/svg" xmlns:xlink="http://www.w3.org/1999/xlink" x="0px" y="0px"
	 viewBox="0 0 400 400" style="enable-background:new 0 0 400 400;" xml:space="preserve">
<style type="text/css">
	.st0{fill:#FFFFFF;}
</style>
<g>
	<g>
		<path class="st0" d="M195.63,346.57c-47.44,0-86.03-38.6-86.03-86.03s38.6-86.03,86.03-86.03c47.44,0,86.04,38.6,86.04,86.03
			S243.07,346.57,195.63,346.57z M195.63,186.58c-40.78,0-73.96,33.18-73.96,73.96s33.18,73.96,73.96,73.96
			c40.78,0,73.97-33.18,73.97-73.96S236.41,186.58,195.63,186.58z"/>
	</g>
	<g>
		<path class="st0" d="M195.63,311.85c-28.3,0-51.32-23.02-51.32-51.31s23.02-51.31,51.32-51.31s51.32,23.02,51.32,51.31
			S223.92,311.85,195.63,311.85z M195.63,218.88c-22.97,0-41.66,18.69-41.66,41.66s18.68,41.66,41.66,41.66s41.66-18.69,41.66-41.66
			S218.6,218.88,195.63,218.88z"/>
	</g>
	<g>
		<path class="st0" d="M195.63,184.22c-1.5,0-2.99-0.55-4.16-1.66l-64.78-61.51c-1.49-1.42-2.16-3.51-1.77-5.52
			c0.39-2.02,1.79-3.71,3.71-4.46l64.78-25.64c1.42-0.57,3.02-0.57,4.44,0l64.78,25.64c1.92,0.75,3.31,2.44,3.71,4.46
			c0.39,2.02-0.28,4.1-1.77,5.52l-64.78,61.51C198.62,183.67,197.12,184.22,195.63,184.22z M141.86,118.81l53.77,51.05l53.77-51.05
			l-53.77-21.28L141.86,118.81z"/>
	</g>
	<g>
		<path class="st0" d="M197.19,179.1c-1.3,0-2.37-1.03-2.41-2.33l-1.57-46.03c-0.05-1.33,1-2.44,2.33-2.49
			c1.25-0.01,2.45,1.01,2.5,2.33l1.57,46.03c0.05,1.33-1,2.44-2.33,2.49C197.25,179.1,197.22,179.1,197.19,179.1z"/>
	</g>
	<g>
		<path class="st0" d="M229.83,122.98h-28.23c-1.33,0-2.41-1.08-2.41-2.41s1.08-2.41,2.41-2.41h28.23c1.33,0,2.41,1.08,2.41,2.41
			S231.17,122.98,229.83,122.98z"/>
	</g>
	<g>
		<path class="st0" d="M189.46,122.98h-21.5c-1.33,0-2.41-1.08-2.41-2.41s1.08-2.41,2.41-2.41h21.5c1.33,0,2.41,1.08,2.41,2.41
			S190.79,122.98,189.46,122.98z"/>
	</g>
</g>
</svg>
