<?xml version="1.0" encoding="utf-8"?>
<!-- Generator: Adobe Illustrator 23.0.0, SVG Export Plug-In . SVG Version: 6.00 Build 0)  -->
<svg version="1.1" id="Layer_1" xmlns="http://www.w3.org/2000/svg" xmlns:xlink="http://www.w3.org/1999/xlink" x="0px" y="0px"
	 viewBox="0 0 400 400" style="enable-background:new 0 0 400 400;" xml:space="preserve">
<style type="text/css">
	.st0{fill:#FFFFFF;}
</style>
<g>
	<g>
		<path class="st0" d="M51.5,300.25l-12.04-51.23l3.8-0.56c28.87-4.25,59.08-9.47,91.06-15c80.86-13.97,164.48-28.41,239.84-29.68
			l8.84-0.15l-24.51,24.07c-40.47,39.73-93.95,63-150.6,65.54L51.5,300.25z M48.08,254.88l8.95,38.06l150.54-6.74
			c54.91-2.46,106.75-25.02,145.97-63.53l11.83-11.62c-72.5,2.18-152.45,15.99-229.86,29.37
			C104.89,245.71,75.88,250.72,48.08,254.88z"/>
	</g>
	<g>
		<line class="st0" x1="356.02" y1="222.7" x2="374.22" y2="207.32"/>
		<path class="st0" d="M356.02,225.52c-0.8,0-1.6-0.34-2.16-1c-1.01-1.19-0.86-2.97,0.33-3.98l18.2-15.39
			c1.19-1.02,2.97-0.85,3.98,0.33c1.01,1.19,0.86,2.97-0.33,3.98l-18.2,15.39C357.31,225.31,356.66,225.52,356.02,225.52z"/>
	</g>
	<g>
		<path class="st0" d="M54.26,281.58c-1.51,0-2.77-1.2-2.82-2.72c-0.06-1.56,1.16-2.87,2.72-2.92l153.47-5.4
			c55.19-1.94,107.28-19.72,146.66-50.08c1.23-0.95,3.01-0.72,3.96,0.51c0.95,1.24,0.72,3.01-0.51,3.96
			c-40.31,31.06-93.55,49.26-149.91,51.24l-153.47,5.4C54.33,281.58,54.29,281.58,54.26,281.58z"/>
	</g>
	<g>
		<path class="st0" d="M46.12,254.58l-4.7-5.26l8.38-7.5c8.72-7.81,19.41-13.1,30.91-15.3l118.73-26.45l64.97,13.68l-1.45,6.91
			l-63.47-13.37L82.14,233.44c-10.35,1.98-19.87,6.69-27.63,13.64L46.12,254.58z"/>
	</g>
	<g>
		<polygon class="st0" points="95.81,227.96 141.5,236.62 263.67,217.22 199.46,203.7 		"/>
	</g>
	<g>
		<path class="st0" d="M29.48,281.58c-1.54,0-2.8-1.24-2.82-2.78c-0.02-1.56,1.22-2.84,2.78-2.86l22.65-0.31
			c1.77,0.01,2.84,1.23,2.86,2.78c0.02,1.56-1.22,2.84-2.78,2.86l-22.65,0.31C29.51,281.58,29.5,281.58,29.48,281.58z"/>
	</g>
</g>
</svg>
