<?xml version="1.0" standalone="no"?>
<!DOCTYPE svg PUBLIC "-//W3C//DTD SVG 20010904//EN"
 "http://www.w3.org/TR/2001/REC-SVG-20010904/DTD/svg10.dtd">
<svg version="1.0" xmlns="http://www.w3.org/2000/svg"
 width="1024.000000pt" height="1024.000000pt" viewBox="0 0 1024.000000 1024.000000"
 preserveAspectRatio="xMidYMid meet">
<metadata>
Created by potrace 1.11, written by Peter Selinger 2001-2013
</metadata>
<g transform="translate(0.000000,1024.000000) scale(0.100000,-0.100000)"
fill="#000000" stroke="none">
<path d="M1634 10229 c-447 -40 -888 -264 -1180 -600 -264 -302 -412 -655
-445 -1056 -7 -87 -9 -1240 -7 -3563 l4 -3435 21 -110 c76 -385 239 -699 499
-960 220 -221 470 -369 777 -463 l122 -37 3710 0 3710 0 122 37 c606 185 1046
625 1231 1233 l37 120 0 3710 0 3710 -37 120 c-93 308 -240 556 -459 774 -265
265 -576 427 -964 504 l-110 21 -3470 2 c-1908 1 -3511 -2 -3561 -7z m2173
-1551 c-20 -46 -66 -134 -67 -126 0 11 68 158 75 158 3 0 -1 -15 -8 -32z m305
-144 c68 -35 105 -136 79 -217 -24 -71 -121 -127 -194 -112 -53 11 -107 53
-128 98 -24 55 -24 101 2 154 44 90 148 124 241 77z m-387 -45 c-58 -162 -72
-359 -36 -501 61 -238 240 -441 591 -671 63 -41 275 -166 470 -278 407 -232
558 -326 720 -447 138 -103 330 -288 411 -395 254 -336 329 -715 234 -1183
-33 -163 -33 -186 5 -217 16 -14 53 -30 82 -37 30 -6 216 -15 433 -20 472 -11
748 -38 858 -85 56 -23 122 -89 146 -144 16 -37 31 -55 65 -75 91 -53 111
-160 52 -283 -19 -39 -38 -73 -43 -76 -5 -3 -9 16 -9 44 0 93 -54 132 -209
150 -146 17 -561 5 -950 -27 -422 -35 -902 -41 -1025 -11 -212 50 -264 146
-184 337 328 778 279 1291 -163 1710 -133 126 -276 227 -588 416 -460 277
-583 363 -726 510 -202 209 -282 401 -282 674 1 185 36 352 125 583 31 82 50
103 23 26z m-432 -1261 c-22 -62 -25 -85 -21 -164 3 -78 8 -100 37 -158 58
-118 187 -237 390 -360 51 -32 200 -114 330 -183 369 -196 507 -280 647 -394
442 -360 438 -794 -13 -1376 -44 -56 -71 -83 -85 -83 -24 0 -25 -5 27 129 58
149 78 255 79 406 0 161 -16 231 -89 380 -116 237 -248 362 -811 767 -329 237
-471 395 -540 598 -28 82 -26 252 4 347 24 77 59 163 66 163 2 0 -7 -32 -21
-72z m-240 -804 c-36 -178 16 -335 161 -480 97 -97 173 -149 437 -299 253
-145 329 -195 405 -271 151 -150 169 -310 58 -524 -68 -131 -303 -410 -346
-410 -12 0 -18 5 -14 13 219 479 160 736 -226 990 -65 42 -171 112 -235 154
-154 101 -248 194 -299 298 l-39 79 0 125 c0 104 4 139 23 200 24 77 82 214
88 208 2 -2 -4 -39 -13 -83z m-698 -3124 c73 -195 131 -358 128 -362 -2 -5
-40 -8 -83 -8 l-78 0 -27 80 -27 81 -136 -3 -137 -3 -26 -75 -26 -75 -72 -3
-71 -3 0 36 c0 21 48 162 120 353 66 174 123 323 125 330 3 9 27 12 91 10 l86
-3 133 -355z m2575 -5 l0 -365 -70 0 -70 0 0 31 0 31 -30 -26 c-89 -74 -243
-50 -312 49 -92 133 -62 348 59 425 81 51 177 49 243 -6 l30 -26 0 126 0 126
75 0 75 0 0 -365z m918 298 l-3 -68 -172 -3 -173 -2 0 -80 0 -80 150 0 150 0
0 -65 0 -65 -150 0 -149 0 -3 -147 -3 -148 -80 0 -80 0 -3 363 -2 362 260 0
261 0 -3 -67z m-2979 -127 c7 -8 11 -38 9 -72 l-3 -58 -50 0 c-56 -1 -95 -21
-122 -63 -15 -22 -19 -55 -21 -185 l-4 -159 -71 3 -72 3 -3 263 -2 262 75 0
75 0 0 -34 0 -33 34 32 c51 47 132 69 155 41z m416 3 c24 -6 55 -24 70 -39
l27 -28 43 33 c98 74 240 50 290 -50 18 -36 20 -60 20 -245 l0 -205 -71 -3
-72 -3 -4 192 -4 191 -29 25 c-23 20 -36 24 -64 19 -19 -3 -44 -15 -55 -26
-19 -19 -21 -36 -26 -208 l-5 -187 -72 -3 -73 -3 0 176 c0 198 -9 238 -55 249
-15 4 -41 2 -59 -4 -55 -18 -60 -37 -66 -235 l-5 -180 -72 -3 -73 -3 0 266 0
265 70 0 70 0 0 -32 0 -32 29 28 c29 27 90 55 124 56 10 0 38 -5 62 -11z m884
-5 c100 -29 170 -131 174 -252 l2 -47 -187 -3 c-204 -3 -198 0 -177 -61 14
-39 54 -61 111 -61 43 0 108 30 108 50 0 6 29 10 70 10 l70 0 -24 -49 c-32
-63 -74 -97 -143 -117 -75 -22 -158 -13 -226 23 -173 95 -169 395 6 485 79 40
136 46 216 22z m2095 -13 c97 -42 148 -133 147 -262 0 -57 -5 -83 -27 -126
-63 -130 -235 -179 -379 -108 -92 44 -135 125 -135 249 0 142 74 234 215 270
36 9 136 -4 179 -23z m560 23 c12 -5 16 -21 16 -73 l0 -67 -54 0 c-40 1 -62
-5 -83 -20 -49 -36 -57 -66 -61 -232 l-4 -153 -72 3 -71 3 -3 263 -2 262 75 0
75 0 0 -36 0 -37 25 27 c26 28 98 65 127 66 9 0 23 -3 32 -6z m423 -19 c67
-28 113 -83 128 -152 l7 -33 -76 0 c-63 0 -76 3 -76 16 0 8 -13 29 -29 45 -55
55 -145 31 -177 -47 -31 -73 -5 -207 44 -233 12 -6 40 -11 65 -11 48 0 77 22
96 73 10 26 13 27 81 27 82 0 85 -6 44 -89 -45 -90 -146 -141 -255 -128 -137
16 -226 108 -237 243 -15 191 110 324 290 309 32 -3 75 -12 95 -20z m571 -4
c78 -40 130 -126 139 -232 l6 -59 -192 0 c-125 0 -191 -4 -191 -10 0 -24 30
-79 51 -94 15 -10 44 -16 77 -16 46 0 58 4 84 30 27 27 36 30 94 30 l64 0 -15
-37 c-48 -114 -184 -168 -321 -128 -159 46 -230 235 -150 398 31 65 75 102
149 129 63 22 149 18 205 -11z m570 0 c45 -23 77 -56 91 -94 21 -54 17 -57
-59 -57 -58 0 -72 3 -77 18 -14 40 -35 52 -89 52 -50 0 -84 -16 -84 -40 0 -23
47 -48 129 -67 166 -40 205 -74 199 -174 -5 -69 -32 -109 -96 -141 -68 -33
-215 -32 -285 2 -52 25 -91 73 -102 128 l-7 32 72 0 c69 0 71 -1 81 -29 27
-77 189 -73 189 4 0 33 -16 42 -126 71 -113 30 -139 42 -173 78 -19 20 -25 37
-25 74 1 117 93 178 257 166 39 -2 84 -12 105 -23z m-5378 -1136 l0 -365 -80
0 -80 0 0 365 0 365 80 0 80 0 0 -365z m530 153 c77 -39 84 -66 88 -310 l3
-208 -75 0 -76 0 0 169 c0 225 -10 251 -99 251 -82 0 -101 -49 -101 -267 l0
-153 -75 0 -75 0 0 265 0 266 72 -3 c71 -3 73 -4 78 -32 l5 -28 20 22 c48 54
158 67 235 28z m512 12 c65 -18 128 -87 128 -140 0 -18 -6 -20 -69 -20 -64 0
-69 2 -75 23 -7 29 -44 47 -95 47 -51 0 -76 -19 -67 -53 6 -27 41 -42 156 -68
151 -33 205 -116 148 -229 -16 -32 -36 -52 -68 -70 -40 -22 -56 -25 -155 -25
-102 0 -113 2 -158 28 -50 30 -87 85 -87 132 0 24 2 25 68 25 l68 0 12 -33
c14 -39 46 -57 101 -57 44 0 91 31 91 60 0 29 -34 47 -144 75 -116 30 -126 35
-160 76 -44 52 -28 158 31 196 62 41 191 56 275 33z m1153 -60 l0 -65 -57 -5
c-67 -6 -106 -31 -124 -81 -8 -20 -13 -90 -13 -176 l-1 -143 -75 0 -75 0 0
265 0 265 70 0 70 0 0 -45 0 -46 32 37 c40 46 81 64 133 61 l40 -2 0 -65z
m439 45 c68 -33 73 -50 78 -278 3 -111 9 -210 13 -219 6 -16 0 -18 -68 -18
-66 0 -76 2 -82 20 -6 19 -7 19 -48 -3 -49 -26 -158 -35 -209 -18 -19 6 -48
25 -64 42 -24 25 -29 39 -32 97 -4 62 -2 71 22 99 33 39 87 61 184 74 112 14
132 24 132 65 0 40 -29 64 -77 64 -51 0 -83 -17 -94 -50 -11 -30 -12 -30 -86
-30 l-75 0 7 33 c12 59 58 106 131 133 56 20 216 14 268 -11z m586 3 c77 -39
84 -66 88 -310 l3 -208 -75 0 -76 0 0 169 c0 225 -10 251 -99 251 -82 0 -101
-49 -101 -267 l0 -153 -75 0 -75 0 0 265 0 266 72 -3 c71 -3 73 -4 78 -32 l5
-28 20 22 c48 54 158 67 235 28z m585 -9 c51 -26 96 -84 109 -141 l6 -28 -74
0 c-73 0 -74 0 -87 31 -8 20 -25 37 -47 46 -64 27 -125 -2 -151 -70 -16 -42
-13 -131 5 -177 38 -93 160 -94 198 0 l16 40 71 0 71 0 -7 -32 c-18 -84 -80
-154 -154 -177 -65 -19 -160 -14 -216 13 -102 47 -149 134 -144 263 6 125 63
211 165 249 62 23 179 15 239 -17z m540 12 c81 -38 138 -126 151 -234 l7 -57
-192 0 c-211 0 -205 2 -177 -65 31 -73 137 -87 200 -26 31 30 37 32 95 29 l63
-3 -29 -55 c-42 -80 -98 -112 -207 -118 -69 -4 -90 -1 -134 18 -207 89 -202
415 8 509 59 27 160 28 215 2z m-2945 -163 c0 -145 3 -179 18 -208 16 -32 21
-35 68 -38 98 -6 113 31 114 266 l0 152 75 0 75 0 0 -265 0 -266 -72 3 c-71 3
-73 4 -76 29 l-3 27 -26 -24 c-36 -33 -86 -47 -159 -42 -72 4 -107 24 -139 79
-18 31 -20 55 -23 247 l-3 212 75 0 76 0 0 -172z"/>
<path d="M3963 8504 c-45 -22 -73 -71 -73 -125 0 -148 195 -191 263 -59 60
116 -71 242 -190 184z m120 -46 c21 -25 22 -51 2 -68 -21 -17 -19 -27 11 -57
14 -14 23 -31 20 -39 -10 -27 -43 -14 -72 29 -23 33 -29 38 -32 23 -2 -10 2
-22 8 -26 26 -16 2 -40 -40 -40 -33 0 -40 3 -40 20 0 11 5 20 10 20 6 0 10 28
10 65 0 37 -4 65 -10 65 -14 0 -12 27 3 34 27 11 112 -6 130 -26z"/>
<path d="M4010 8425 c0 -16 6 -25 15 -25 21 0 31 30 14 41 -23 14 -29 11 -29
-16z"/>
<path d="M7310 4569 c0 -37 33 -53 130 -63 l65 -6 -69 30 c-38 16 -79 39 -91
50 -29 27 -35 25 -35 -11z"/>
<path d="M2089 3349 l-44 -124 84 -3 c46 -2 85 -1 87 1 2 2 -16 59 -40 126
l-43 123 -44 -123z"/>
<path d="M4602 3344 c-37 -26 -56 -73 -56 -144 0 -108 41 -160 124 -160 37 0
51 5 73 28 59 62 57 215 -4 267 -36 29 -101 34 -137 9z"/>
<path d="M4021 3346 c-24 -13 -50 -51 -51 -73 0 -10 28 -13 110 -13 70 0 110
4 110 10 0 21 -30 70 -49 80 -27 14 -91 12 -120 -4z"/>
<path d="M6079 3345 c-38 -20 -59 -73 -59 -144 0 -111 38 -161 120 -161 83 0
120 48 120 155 0 75 -17 125 -51 149 -29 20 -95 20 -130 1z"/>
<path d="M7621 3333 c-16 -16 -32 -38 -36 -50 -6 -23 -6 -23 109 -23 l115 0
-11 30 c-25 72 -121 95 -177 43z"/>
<path d="M5558 2195 c-3 -3 -34 -10 -69 -16 -84 -13 -109 -30 -109 -73 0 -46
26 -66 84 -66 39 0 53 5 77 29 24 25 29 37 29 80 0 50 -2 56 -12 46z"/>
<path d="M7195 2366 c-37 -16 -51 -33 -60 -69 l-7 -27 111 0 c94 0 111 2 111
15 0 32 -30 73 -61 84 -40 14 -57 13 -94 -3z"/>
</g>
</svg>
